<?xml version="1.0" encoding="utf-8"?>
<!-- Generator: Adobe Illustrator 25.2.1, SVG Export Plug-In . SVG Version: 6.00 Build 0)  -->
<svg version="1.1" id="Capa_1" xmlns="http://www.w3.org/2000/svg" xmlns:xlink="http://www.w3.org/1999/xlink" x="0px" y="0px"
	 viewBox="0 0 167.4 176.5" style="enable-background:new 0 0 167.4 176.5;" xml:space="preserve">
<style type="text/css">
	.st0{fill:#FFFFFF;}
</style>
<g>
	<path d="M-189.6-222.1c40.1,0,80.1,0,120.2,0c11.9,4,15.6,9.1,15.6,21.8c0,46.7,0,93.4,0,140.1c0,1.3,0,2.6,0,5
		c-13.6-11.9-26.3-23-39.9-34.9c1.6,5.6,3,10.1,4.5,15.2c-1.7,0-3,0-4.3,0c-30,0-60.1,0-90.1,0c-1.4,0-2.7,0-4.1-0.1
		c-10.3-0.9-16.6-7.8-16.6-18.1c0-36.8,0-73.6,0-110.4c0-1.5,0.1-3,0.4-4.4C-202.5-215.9-196.9-219.9-189.6-222.1z M-161.6-127.1
		c0.2-0.4,0.5-0.8,0.7-1.2c21,10.9,42,11.6,63,0.1c0.1,0.4,0.3,0.8,0.4,1.2c-4.3,2.5-8.7,5-13,7.5c2.4,3.8,4.5,7.5,10.3,6.2
		c7.4-1.6,14.2-4.3,19.5-9.8c1.2-1.2,2.1-3.4,2.1-5.1c-0.5-15.5-4.7-30.1-11.6-43.9c-0.5-1.1-1.4-2.1-2.4-2.7
		c-6.1-4.3-12.8-6.9-20.2-7.7c-0.9-0.1-1.9,0.3-2.8,0.4c2,1.6,4.1,2.3,6.1,3.1c2.1,0.8,4.1,1.7,6,2.8c1.8,1,3.5,2.1,5.2,3.2
		c-21.2-8.2-42.1-8.5-63.1,0.5c-0.1-0.4-0.3-0.8-0.4-1.2c6.4-2.8,12.8-5.6,20-8.8c-2,0-3.4-0.3-4.5,0.1c-6,2.1-12,4.2-17.8,6.8
		c-1.8,0.8-3.4,2.9-4.3,4.8c-5.9,11.7-8.9,24.2-10.9,37c-1.3,8.5,2.1,13.7,9.2,17.2c2.2,1.1,4.5,2.1,6.8,2.8
		c8.7,2.6,9.2,2.4,14.7-4.8c0.1-0.2,0.1-0.5,0.1-0.2C-152.9-121.7-157.2-124.4-161.6-127.1z"/>
	<path className="st0" d="M-161.6-127.1c4.4,2.7,8.7,5.3,13.2,8.1c0-0.2,0.1,0.1-0.1,0.2c-5.5,7.2-6,7.4-14.7,4.8
		c-2.3-0.7-4.6-1.7-6.8-2.8c-7.1-3.5-10.6-8.6-9.2-17.2c2-12.9,5-25.4,10.9-37c0.9-1.9,2.5-4,4.3-4.8c5.8-2.6,11.8-4.7,17.8-6.8
		c1.1-0.4,2.5-0.1,4.5-0.1c-7.2,3.2-13.6,6-20,8.8c0.1,0.4,0.3,0.8,0.4,1.2c21-8.9,41.9-8.7,63.1-0.5c-1.7-1.1-3.4-2.2-5.2-3.2
		c-2-1-4-1.9-6-2.8c-2-0.8-4.1-1.5-6.1-3.1c0.9-0.1,1.9-0.5,2.8-0.4c7.4,0.8,14.1,3.4,20.2,7.7c1,0.7,1.8,1.7,2.4,2.7
		c7,13.8,11.1,28.4,11.6,43.9c0.1,1.7-0.9,3.8-2.1,5.1c-5.3,5.5-12.1,8.2-19.5,9.8c-5.8,1.3-7.9-2.4-10.3-6.2c4.3-2.5,8.7-5,13-7.5
		c-0.1-0.4-0.3-0.8-0.4-1.2c-21,11.4-42.1,10.8-63-0.1C-161.1-127.9-161.3-127.5-161.6-127.1z M-145.1-151.9c-4.8,0-8.8,4.1-8.8,9.1
		c0,4.9,4,9.2,8.7,9.3c4.9,0.1,9-4.2,8.9-9.4C-136.3-147.9-140.2-151.9-145.1-151.9z M-122.2-142.6c0.1,5,4.1,9.1,8.8,9.1
		c4.7,0,8.7-4.2,8.8-9.2c0.1-5.1-4.1-9.3-9-9.2C-118.4-151.7-122.2-147.6-122.2-142.6z"/>
	<path d="M-145.1-151.9c4.9,0,8.8,3.9,8.9,9c0.1,5.2-4,9.5-8.9,9.4c-4.7-0.1-8.8-4.3-8.7-9.3C-153.8-147.7-149.9-151.8-145.1-151.9z
		"/>
	<path d="M-122.2-142.6c-0.1-5,3.7-9.2,8.6-9.3c5-0.1,9.1,4.1,9,9.2c-0.1,5-4,9.2-8.8,9.2C-118.1-133.4-122.1-137.6-122.2-142.6z"/>
</g>
<g>
	<path d="M6.8,151.5c0-42.1,0-84.3,0-126.4c0.8-1.7,1.5-3.4,2.5-5c1.7-2.8,4.6-3.9,7.5-5c44.6,0,89.1,0,133.7,0
		c1.7,0.9,3.6,1.6,5.2,2.6c2.7,1.7,3.7,4.6,4.8,7.4c0,42.1,0,84.3,0,126.4c-0.8,1.6-1.4,3.3-2.3,4.8c-1.8,2.8-4.7,4.1-7.7,5.2
		c-44.6,0-89.1,0-133.7,0c-1.6-0.8-3.3-1.4-4.8-2.3C9.2,157.4,7.9,154.5,6.8,151.5z M80,61c0-4,0.1-7.7,0-11.3
		c-0.2-6.3-5-11.1-11.2-11.1c-6.2,0-11.1,4.6-11.2,11c-0.1,15.8-0.2,31.5,0.1,47.3c0.3,14.6,12.5,28.3,26.9,30.5
		c4.9,0.7,10,0.6,15,0.7c5.1,0.1,10.2,0.2,15.2-0.2c6.7-0.6,11-7.2,9.4-13.7c-1.3-5.2-5.7-8.5-11.7-8.5c-7-0.1-14.1,0-21.1,0
		c-5.4-0.1-10.1-3.3-10.8-8.2c-0.6-4.5-0.1-9.1-0.1-13.9c0.6,0,1.4,0,2.1,0c5.6,0,11.2,0,16.8,0c4.5,0,9.1,0.1,13.6,0
		c5.4-0.1,9.7-3.3,11-7.9c2.2-7.5-3-14.4-11.1-14.5c-10-0.1-20,0-30,0C82.1,61,81.2,61,80,61z"/>
	<path className="st0" d="M80,61c1.2,0,2.1,0,3,0c10,0,20-0.1,30,0c8,0.1,13.3,7.1,11.1,14.5c-1.4,4.6-5.7,7.8-11,7.9
		c-4.5,0.1-9.1,0-13.6,0c-5.6,0-11.2,0-16.8,0c-0.7,0-1.5,0-2.1,0c0,4.8-0.5,9.4,0.1,13.9c0.7,4.9,5.4,8.2,10.8,8.2
		c7,0.1,14.1,0,21.1,0c6,0,10.4,3.3,11.7,8.5c1.6,6.5-2.7,13.1-9.4,13.7c-5,0.5-10.1,0.3-15.2,0.2c-5-0.1-10,0-15-0.7
		c-14.4-2.2-26.6-15.9-26.9-30.5c-0.3-15.8-0.2-31.5-0.1-47.3c0-6.4,4.9-11,11.2-11c6.1,0,11,4.8,11.2,11.1C80.1,53.4,80,57,80,61z"
		/>
</g>
<g>
	<path d="M-41.2,274.5c-0.4,38.8-30.1,72.6-73,72.7c-39.3,0.1-72.5-30.6-72.7-72.8c-0.1-38.8,30.2-72.7,72.9-72.7
		C-70.9,201.8-41.5,236.8-41.2,274.5z M-115.5,297.6c0.7,0.5,0.9,0.7,1.2,0.9c5.5,4.1,11,8.2,16.6,12.3c0.9,0.6,1.9,1,2.9,1.3
		c1.5,0.4,2.7-0.1,3.4-1.5c0.5-0.9,0.8-1.8,1-2.8c3.8-17.9,7.6-35.9,11.4-53.8c0.3-1.5,0.7-3.1,0.7-4.7c0-2.8-2.2-4.3-4.8-3.5
		c-0.4,0.1-0.8,0.3-1.2,0.4c-10.2,3.9-20.4,7.9-30.6,11.8c-12.8,4.9-25.6,9.9-38.3,14.8c-1,0.4-2.1,0.9-3,1.5
		c-0.8,0.5-1.3,1.3-1.1,2.2c0.1,0.9,0.9,1.3,1.7,1.6c0.1,0.1,0.3,0.1,0.4,0.1c6,1.8,11.9,3.6,17.9,5.4c0.6,0.2,1.1,0.1,1.6-0.2
		c13.7-8.7,27.4-17.3,41.2-25.9c0.4-0.2,0.8-0.5,1.2-0.5c0.4,0,0.8,0.2,1.2,0.3c-0.2,0.4-0.3,0.7-0.5,1.1c-0.1,0.2-0.3,0.3-0.5,0.4
		c-10.9,9.9-21.7,19.8-32.6,29.8c-0.3,0.3-0.7,0.8-0.7,1.3c-0.5,5.7-0.9,11.4-1.4,17.2c0,0.2,0,0.5,0,0.8c1.7-0.2,2.9-1,4-2.1
		c2.1-2,4.1-3.9,6.2-6C-116.8,299.3-116.2,298.4-115.5,297.6z"/>
	<path className="st0" d="M-115.5,297.6c-0.7,0.8-1.3,1.6-2,2.4c-2,2-4.1,4-6.2,6c-1.1,1-2.3,1.9-4,2.1c0-0.3,0-0.6,0-0.8
		c0.4-5.7,0.9-11.5,1.4-17.2c0-0.4,0.3-1,0.7-1.3c10.8-9.9,21.7-19.9,32.6-29.8c0.2-0.1,0.4-0.3,0.5-0.4c0.2-0.3,0.4-0.7,0.5-1.1
		c-0.4-0.1-0.8-0.3-1.2-0.3c-0.4,0-0.9,0.3-1.2,0.5c-13.7,8.6-27.5,17.3-41.2,25.9c-0.5,0.3-1,0.4-1.6,0.2
		c-5.9-1.8-11.9-3.6-17.9-5.4c-0.1,0-0.3-0.1-0.4-0.1c-0.8-0.3-1.5-0.7-1.7-1.6c-0.2-1,0.4-1.8,1.1-2.2c0.9-0.6,1.9-1.1,3-1.5
		c12.8-5,25.5-9.9,38.3-14.8c10.2-3.9,20.4-7.9,30.6-11.8c0.4-0.2,0.8-0.3,1.2-0.4c2.7-0.8,4.9,0.7,4.8,3.5c0,1.6-0.4,3.1-0.7,4.7
		c-3.8,17.9-7.6,35.9-11.4,53.8c-0.2,1-0.5,1.9-1,2.8c-0.7,1.3-1.9,1.9-3.4,1.5c-1-0.3-2.1-0.7-2.9-1.3c-5.5-4-11-8.2-16.6-12.3
		C-114.6,298.3-114.9,298.1-115.5,297.6z"/>
</g>
</svg>
